<svg width="60" height="60" viewBox="0 0 60 60" fill="none" xmlns="http://www.w3.org/2000/svg">
<path d="M22.8015 45.696C22.7132 45.696 22.6256 45.6792 22.5435 45.6465C20.5873 45.6437 18.6311 45.6157 16.6755 45.5625C15.261 45.528 13.9485 45.4965 12.429 45.4965C10.0435 45.4941 7.75629 44.5455 6.0693 42.8588C4.38232 41.1721 3.43332 38.8851 3.43054 36.4995C3.43054 33.4935 4.88554 30.7515 7.34704 29.073C7.14547 28.0913 7.04396 27.0917 7.04404 26.0895C7.04404 17.937 13.677 11.3025 21.8325 11.3025C24.5032 11.3051 27.1236 12.0294 29.4165 13.3987C31.7094 14.768 33.5897 16.7315 34.8585 19.0815C35.6934 18.2255 36.6918 17.5461 37.7944 17.0835C38.897 16.621 40.0813 16.3848 41.277 16.389C42.644 16.3902 43.9928 16.7024 45.2212 17.3021C46.4496 17.9018 47.5254 18.7733 48.3671 19.8504C49.2087 20.9276 49.7942 22.1821 50.0791 23.5191C50.3641 24.856 50.3409 26.2403 50.0115 27.567C51.8989 28.0996 53.5608 29.2339 54.7446 30.7975C55.9283 32.3611 56.5691 34.2684 56.5695 36.2295C56.5695 41.1915 52.533 45.2295 47.571 45.2295C45.258 45.2295 40.0065 45.3495 34.929 45.4665C29.8035 45.5865 24.963 45.696 22.8015 45.696ZM21.8325 12.699C14.448 12.699 8.44054 18.705 8.44054 26.0895C8.44054 27.15 8.56654 28.2075 8.81404 29.232C8.84872 29.3761 8.83658 29.5275 8.7794 29.6643C8.72223 29.801 8.62297 29.916 8.49604 29.9925C7.37231 30.6655 6.44302 31.6193 5.79948 32.7601C5.15594 33.901 4.8203 35.1897 4.82554 36.4995C4.82792 38.5148 5.62966 40.4469 7.05484 41.8718C8.48002 43.2967 10.4122 44.098 12.4275 44.1C13.959 44.1 15.282 44.1315 16.7085 44.166C18.366 44.205 20.1645 44.2485 22.6035 44.2485C22.6919 44.2487 22.7794 44.2655 22.8615 44.298C25.041 44.295 30.0495 44.181 34.8945 44.07C39.981 43.953 45.24 43.833 47.5695 43.833C49.5852 43.8306 51.5177 43.0287 52.9429 41.6033C54.368 40.1778 55.1696 38.2452 55.1715 36.2295C55.172 34.4616 54.556 32.7488 53.4296 31.3862C52.3032 30.0235 50.737 29.0962 49.0005 28.764C48.9025 28.7453 48.8095 28.7058 48.7281 28.6481C48.6466 28.5904 48.5786 28.5158 48.5285 28.4294C48.4784 28.343 48.4475 28.2469 48.4378 28.1475C48.4282 28.0482 48.44 27.9479 48.4725 27.8535C48.8631 26.7086 48.9751 25.487 48.7993 24.2902C48.6234 23.0933 48.1647 21.9556 47.4612 20.9715C46.7578 19.9873 45.8298 19.1851 44.7543 18.6313C43.6788 18.0774 42.4868 17.788 41.277 17.787C40.1113 17.7837 38.9605 18.0502 37.9149 18.5657C36.8693 19.0812 35.9572 19.8317 35.25 20.7585C35.1769 20.855 35.0798 20.9306 34.9684 20.978C34.857 21.0253 34.7351 21.0428 34.6149 21.0285C34.4947 21.0143 34.3803 20.9688 34.2831 20.8967C34.1858 20.8246 34.1091 20.7284 34.0605 20.6175C33.0008 18.2606 31.2832 16.2598 29.1142 14.8552C26.9451 13.4505 24.4167 12.7018 21.8325 12.699Z" fill="#EE712B"/>
<path d="M26.787 32.271C26.8206 32.2708 26.8538 32.2781 26.8841 32.2924C26.9145 32.3066 26.9413 32.3275 26.9625 32.3535L27.447 32.8755C27.0783 33.302 26.6205 33.6424 26.106 33.873C25.581 34.1115 24.9465 34.23 24.201 34.23C23.556 34.23 22.971 34.1175 22.443 33.894C21.9302 33.6814 21.4696 33.36 21.093 32.952C20.7088 32.5305 20.4139 32.0355 20.226 31.497C20.0158 30.8981 19.9117 30.2672 19.9185 29.6325C19.9185 28.9545 20.0265 28.332 20.2395 27.7665C20.4306 27.2268 20.7338 26.7337 21.1291 26.3195C21.5244 25.9054 22.0028 25.5796 22.533 25.3635C23.1016 25.135 23.7098 25.0213 24.3225 25.029C24.963 25.029 25.5285 25.1325 26.019 25.3365C26.508 25.5405 26.9385 25.8195 27.312 26.1705L26.91 26.73C26.8856 26.7713 26.8523 26.8067 26.8125 26.8335C26.7642 26.8626 26.7084 26.8767 26.652 26.874C26.577 26.874 26.484 26.8335 26.376 26.751C26.0504 26.5039 25.6823 26.3184 25.29 26.2035C24.9735 26.1142 24.6453 26.0728 24.3165 26.0805C23.8515 26.0805 23.427 26.163 23.04 26.3235C22.6607 26.4804 22.321 26.7197 22.0455 27.024C21.768 27.3285 21.5505 27.702 21.396 28.1415C21.2354 28.6208 21.1572 29.124 21.165 29.6295C21.165 30.1905 21.246 30.69 21.4065 31.1295C21.567 31.569 21.7875 31.941 22.0665 32.244C22.3455 32.547 22.6725 32.7795 23.052 32.9385C23.4315 33.0975 23.841 33.177 24.2805 33.177C24.549 33.177 24.7905 33.162 25.005 33.129C25.2087 33.1017 25.4089 33.0524 25.602 32.982C25.7807 32.9173 25.9513 32.8322 26.1105 32.7285C26.268 32.625 26.424 32.502 26.58 32.361C26.6355 32.3065 26.7093 32.2744 26.787 32.271ZM37.0005 29.634C37.0005 30.3075 36.894 30.9255 36.6795 31.491C36.479 32.0315 36.1714 32.5259 35.775 32.9445C35.3796 33.3555 34.9016 33.6781 34.3725 33.891C33.7962 34.1199 33.1806 34.2336 32.5605 34.2255C31.899 34.2255 31.296 34.1145 30.7515 33.891C30.2233 33.678 29.7463 33.3554 29.352 32.9445C28.9548 32.5265 28.6471 32.032 28.4475 31.491C28.228 30.8968 28.1192 30.2674 28.1265 29.634C28.1265 28.959 28.233 28.341 28.4475 27.777C28.662 27.2145 28.9635 26.727 29.352 26.3205C29.7464 25.9085 30.2233 25.5844 30.7515 25.3695C31.326 25.1374 31.941 25.0221 32.5605 25.0305C33.2235 25.0305 33.8265 25.143 34.3725 25.3695C34.917 25.5945 35.3865 25.914 35.775 26.3205C36.165 26.7285 36.4665 27.2145 36.6795 27.777C36.894 28.341 37.0005 28.959 37.0005 29.634ZM35.7495 29.634C35.7495 29.0805 35.6745 28.584 35.523 28.146C35.3888 27.7342 35.1708 27.3547 34.8825 27.0315C34.6039 26.726 34.2605 26.4867 33.8775 26.331C33.4581 26.1625 33.0095 26.0789 32.5575 26.085C32.076 26.085 31.6395 26.1675 31.245 26.331C30.8616 26.4867 30.5177 26.726 30.2385 27.0315C29.9595 27.3345 29.745 27.7065 29.5935 28.146C29.4435 28.5855 29.367 29.0805 29.367 29.634C29.367 30.186 29.4435 30.681 29.5935 31.119C29.745 31.5555 29.958 31.926 30.2385 32.2305C30.516 32.535 30.852 32.766 31.245 32.9265C31.6395 33.0885 32.076 33.1695 32.5575 33.1695C33.042 33.1695 33.483 33.0885 33.8775 32.9265C34.2705 32.766 34.605 32.5335 34.8825 32.2305C35.16 31.926 35.3715 31.5555 35.523 31.119C35.676 30.681 35.7495 30.186 35.7495 29.634ZM41.2035 37.695C41.274 37.695 41.331 37.716 41.373 37.758C41.3937 37.7792 41.4099 37.8043 41.4207 37.8319C41.4316 37.8594 41.4368 37.8889 41.436 37.9185V38.3145H37.935V38.091C37.9373 37.986 37.9804 37.8859 38.055 37.812L39.735 36.1245C39.8745 35.982 40.0005 35.847 40.116 35.715C40.23 35.5845 40.3275 35.454 40.4085 35.3205C40.4895 35.1885 40.5495 35.055 40.5945 34.92C40.6392 34.7794 40.6615 34.6326 40.6605 34.485C40.6636 34.3469 40.6386 34.2096 40.587 34.0815C40.5442 33.9723 40.4772 33.8742 40.3909 33.7946C40.3046 33.7151 40.2014 33.6563 40.089 33.6225C39.8485 33.5446 39.5894 33.5456 39.3495 33.6255C39.1351 33.6978 38.9526 33.8426 38.8335 34.035C38.775 34.1324 38.7329 34.2389 38.709 34.35C38.6805 34.4355 38.64 34.4925 38.5905 34.521C38.5395 34.5495 38.4705 34.557 38.379 34.545L38.0385 34.485C38.073 34.2465 38.139 34.035 38.2395 33.8505C38.337 33.6675 38.463 33.513 38.613 33.387C38.763 33.264 38.934 33.1695 39.126 33.1035C39.3195 33.039 39.528 33.0075 39.753 33.0075C39.975 33.0075 40.182 33.0405 40.374 33.105C40.5585 33.1627 40.7286 33.2592 40.8727 33.388C41.0168 33.5169 41.1316 33.6751 41.2095 33.852C41.2928 34.0461 41.3337 34.2558 41.3295 34.467C41.3295 34.662 41.301 34.845 41.2425 35.01C41.1837 35.1782 41.104 35.3385 41.0055 35.487C40.905 35.64 40.7895 35.787 40.659 35.931C40.5285 36.075 40.389 36.2205 40.2435 36.3675L38.859 37.779C38.9565 37.7535 39.0555 37.731 39.156 37.716C39.255 37.6995 39.3525 37.692 39.4455 37.692H41.2035V37.695Z" fill="black"/>
</svg>
