<svg width="60" height="60" viewBox="0 0 60 60" fill="none" xmlns="http://www.w3.org/2000/svg">
<path d="M16.9849 2.11676L17.9736 4.36523C20.008 8.98594 21.2385 13.7361 21.7896 18.4644C15.9291 18.9364 10.1032 18.9507 4.83398 18.6585L2.35101 18.519L3.92578 20.442C8.87484 26.4888 14.8959 30.1097 21.3209 33.4389C19.8986 41.6026 16.6655 49.1537 12.2644 55.1551L10.7812 57.1765L13.2715 56.8909C24.9614 55.5483 34.1191 50.8972 41.0084 44.4615C44.8826 47.217 48.7419 50.5564 52.5036 54.8877L54.2726 56.9237L54.4226 54.2319C54.8395 46.755 53.4113 39.219 50.4786 32.2557C54.9036 24.3284 57.2738 15.4717 57.9274 7.10074L58.1618 4.10871L56.0559 6.24387C51.8786 10.4837 45.938 13.4256 39.2433 15.399C33.7431 9.80449 26.981 5.40059 19.3179 2.88199L16.985 2.11652L16.9849 2.11676ZM26.6822 9.77051C27.8974 9.77262 29.4463 10.3429 31.2891 11.4662C33.2262 12.8677 35.0596 14.4072 36.775 16.0729C32.6658 17.1154 28.3343 17.8168 23.9795 18.2556C23.8573 17.2112 23.7034 16.1707 23.518 15.1356C23.5177 15.1332 23.5185 15.1307 23.518 15.1283C23.4177 11.533 24.5336 9.76699 26.6821 9.77051H26.6822ZM48.1348 15.2418C51.7277 15.1734 53.6412 17.3285 52.6904 21.8445C51.7787 24.5394 50.6654 27.1915 49.3396 29.7511C47.1455 25.2115 44.3278 21.0009 40.9682 17.2413C42.4703 16.7655 43.9354 16.2353 45.3553 15.6518C46.3637 15.3945 47.2951 15.2577 48.135 15.2416L48.1348 15.2418ZM38.6059 17.9333C42.5114 22.1322 45.6967 26.9787 48.0139 32.1681C46.9555 33.9734 45.7866 35.7209 44.4983 37.3903C43.6479 38.4919 42.7398 39.5559 41.7845 40.5837C39.3111 39.8686 36.7232 38.8273 34.6581 37.8884C34.6494 37.8844 34.6412 37.8813 34.6323 37.8773C32.3059 36.5701 30.0081 35.3877 27.7623 34.2553C26.3941 33.5655 25.0857 32.8966 23.7633 32.2229C24.2736 28.6946 24.4512 25.0698 24.2468 21.4085C27.2655 20.5706 30.6237 19.8523 33.4241 19.1527C35.1786 18.8023 36.9104 18.3991 38.6058 17.9332L38.6059 17.9333ZM33.9368 21.7603C33.8375 21.7601 33.7399 21.7624 33.6438 21.7677C32.8755 21.8102 32.2113 22.0279 31.6736 22.3683C30.5981 23.0491 29.8976 24.2582 29.8976 26.1257C29.8976 29.8604 33.1971 34.4225 37.046 35.8302C38.9705 36.5341 40.5408 36.3499 41.6163 35.6691C42.6919 34.9882 43.3924 33.7792 43.3924 31.9117C43.3924 28.1769 40.0966 23.6187 36.2478 22.2109C35.4059 21.9027 34.6318 21.7623 33.9369 21.7603H33.9368ZM22.0751 22.057C22.2122 25.1332 22.0676 28.1801 21.6797 31.1609C20.7088 30.6516 19.7515 30.1376 18.8121 29.6081C13.44 26.0763 16.6945 23.798 22.0752 22.0569L22.0751 22.057ZM23.3753 34.4824C24.5075 35.0555 25.6235 35.6309 26.7737 36.2109C30.8359 38.2594 34.9997 40.4325 39.1588 43.1982C38.3667 43.9226 37.5483 44.6176 36.7052 45.2818C28.9043 49.0869 23.1668 45.6064 22.8478 36.9873C23.0424 36.1564 23.2184 35.3213 23.3753 34.4824ZM49.0539 34.6617C49.502 35.8292 49.9063 37.0129 50.2661 38.2105C50.6251 41.4205 47.8084 41.8697 44.2016 41.1768C44.9057 40.3848 45.5823 39.5689 46.2304 38.7305C47.244 37.4171 48.1789 36.0539 49.0539 34.6617Z" fill="#EE712B"/>
</svg>
