<svg width="60" height="60" viewBox="0 0 60 60" fill="none" xmlns="http://www.w3.org/2000/svg">
<path d="M31.7972 33.6986C30.9677 31.2329 31.5207 29.3151 31.7972 28.2192C31.5207 27.1233 30.9677 25.4795 31.5207 23.0137C32.3502 20.8219 33.7327 19.726 34.5622 18.9041C34.8387 17.8082 35.3917 16.1644 37.6037 14.5205C39.5392 13.1507 41.4747 13.1507 42.5806 13.1507C42.8571 12.8767 43.4101 12.6027 43.9631 12.3288V4.38356C44.2396 1.91781 42.3041 0 39.8157 0H4.42396C1.93548 0 0 1.91781 0 4.38356V31.2329C0 33.6986 1.93548 35.6164 4.42396 35.6164H32.9032C32.3502 35.0685 32.0737 34.5206 31.7972 33.6986ZM5.52995 10.9589V5.47945L22.1198 13.6986L38.7097 5.47945V10.9589L22.1198 19.1781L5.52995 10.9589ZM59.7235 24.3836C59.1705 22.7397 57.788 22.4658 56.9585 21.6438C56.4055 20.8219 56.4055 19.1781 55.023 18.3562C53.6405 17.2603 52.2581 17.8082 51.1521 17.5342C50.0461 17.2603 49.2166 15.8904 47.5576 15.8904C45.8986 15.8904 45.0691 16.9863 43.9631 17.5342C42.8571 17.8082 41.4747 17.2603 40.0922 18.3562C38.7097 19.1781 38.9862 20.5479 38.1567 21.6438C37.3272 22.4658 35.9447 23.0137 35.3917 24.3836C34.8387 26.0274 35.9447 27.1233 35.9447 28.2192C35.9447 29.3151 34.8387 30.411 35.3917 32.0548C35.9447 33.6986 37.3272 33.9726 38.1567 34.7945C38.7097 35.6164 38.7097 37.2603 40.0922 38.0822C41.4747 39.1781 42.8571 38.6301 43.9631 38.9041C45.0691 39.1781 45.8986 40.5479 47.5576 40.5479C49.2166 40.5479 50.0461 39.4521 51.1521 38.9041C52.2581 38.6301 53.6405 39.1781 55.023 38.0822C56.4055 36.9863 56.4055 35.6164 56.9585 34.7945C57.788 33.9726 59.1705 33.4247 59.7235 32.0548C60.2765 30.411 59.1705 29.3151 59.1705 28.2192C59.1705 27.1233 60.2765 26.0274 59.7235 24.3836ZM47.5576 36.7123C42.8571 36.7123 39.2627 32.8767 39.2627 28.4932C39.2627 24.1096 43.1336 20.274 47.5576 20.274C51.9816 20.274 55.8525 24.1096 55.8525 28.4932C55.8525 32.8767 52.2581 36.7123 47.5576 36.7123ZM51.7051 28.2192C51.7051 30.411 49.7696 32.3288 47.5576 32.3288C45.3456 32.3288 43.4101 30.411 43.4101 28.2192C43.4101 26.0274 45.3456 24.1096 47.5576 24.1096C49.7696 24.1096 51.7051 26.0274 51.7051 28.2192ZM51.1521 44.1096L49.7696 51.5069L48.1106 60L42.5806 54.7945L35.9447 57.8082L38.7097 42.1918C39.8157 42.7397 41.1982 43.0137 42.5806 43.0137C43.4101 43.5616 44.5161 44.1096 45.3456 44.3836C45.8986 44.6575 46.7281 44.6575 47.5576 44.6575C48.9401 44.9315 50.0461 44.6575 51.1521 44.1096ZM60 50.6849L54.47 48.7671L55.576 42.7397L57.235 41.9178L57.5115 41.6438L60 50.6849Z" fill="#EE712B"/>
</svg>
